<?xml version="1.0" encoding="UTF-8"?>
<svg width="170px" height="458px" viewBox="0 0 170 458" version="1.1" xmlns="http://www.w3.org/2000/svg" xmlns:xlink="http://www.w3.org/1999/xlink">
    <!-- Generator: Sketch 43.1 (39012) - http://www.bohemiancoding.com/sketch -->
    <title>Icon</title>
    <desc>Created with Sketch.</desc>
    <defs></defs>
    <g id="Page-1" stroke="none" stroke-width="1" fill="none" fill-rule="evenodd">
        <g id="Group">
            <path d="M127,45.6527592 L127,302.165272 L127,304.845251 L129.231751,306.32902 C151.404051,321.070171 165,345.876565 165,373 C165,417.18278 129.18278,453 85,453 C40.81722,453 5,417.18278 5,373 C5,345.876565 18.5959491,321.070171 40.7682488,306.32902 L43,304.845251 L43,302.165272 L43,45.6527592 L43.0843097,44.3143359 C44.4725787,22.2754446 62.8030589,5 85,5 C107.196941,5 125.527421,22.2754446 126.91569,44.3143359 L127,45.6527592 Z" id="Combined-Shape" stroke="#000000" stroke-width="10"></path>
            <path d="M65.5,289.5 L100.5,289.5" id="Line" stroke="#000000" stroke-width="5" stroke-linecap="square"></path>
            <path d="M65.5,279.5 L80.5,279.5" id="Line-Copy-6" stroke="#000000" stroke-width="5" stroke-linecap="square"></path>
            <path d="M65.5,269.5 L80.5,269.5" id="Line-Copy-7" stroke="#000000" stroke-width="5" stroke-linecap="square"></path>
            <path d="M65.5,259.5 L80.5,259.5" id="Line-Copy-8" stroke="#000000" stroke-width="5" stroke-linecap="square"></path>
            <path d="M65.5,249.5 L80.5,249.5" id="Line-Copy-9" stroke="#000000" stroke-width="5" stroke-linecap="square"></path>
            <path d="M65.5,229.5 L80.5,229.5" id="Line-Copy-10" stroke="#000000" stroke-width="5" stroke-linecap="square"></path>
            <path d="M65.5,219.5 L80.5,219.5" id="Line-Copy-11" stroke="#000000" stroke-width="5" stroke-linecap="square"></path>
            <path d="M65.5,209.5 L80.5,209.5" id="Line-Copy-12" stroke="#000000" stroke-width="5" stroke-linecap="square"></path>
            <path d="M65.5,199.5 L80.5,199.5" id="Line-Copy-13" stroke="#000000" stroke-width="5" stroke-linecap="square"></path>
            <path d="M65.5,179.5 L80.5,179.5" id="Line-Copy-14" stroke="#000000" stroke-width="5" stroke-linecap="square"></path>
            <path d="M65.5,169.5 L80.5,169.5" id="Line-Copy-15" stroke="#000000" stroke-width="5" stroke-linecap="square"></path>
            <path d="M65.5,159.5 L80.5,159.5" id="Line-Copy-16" stroke="#000000" stroke-width="5" stroke-linecap="square"></path>
            <path d="M65.5,149.5 L80.5,149.5" id="Line-Copy-17" stroke="#000000" stroke-width="5" stroke-linecap="square"></path>
            <path d="M65.5,129.5 L80.5,129.5" id="Line-Copy-18" stroke="#000000" stroke-width="5" stroke-linecap="square"></path>
            <path d="M65.5,119.5 L80.5,119.5" id="Line-Copy-19" stroke="#000000" stroke-width="5" stroke-linecap="square"></path>
            <path d="M65.5,109.5 L80.5,109.5" id="Line-Copy-20" stroke="#000000" stroke-width="5" stroke-linecap="square"></path>
            <path d="M65.5,99.5 L80.5,99.5" id="Line-Copy-21" stroke="#000000" stroke-width="5" stroke-linecap="square"></path>
            <path d="M65.5,79.5 L80.5,79.5" id="Line-Copy-22" stroke="#000000" stroke-width="5" stroke-linecap="square"></path>
            <path d="M65.5,69.5 L80.5,69.5" id="Line-Copy-23" stroke="#000000" stroke-width="5" stroke-linecap="square"></path>
            <path d="M65.5,59.5 L80.5,59.5" id="Line-Copy-24" stroke="#000000" stroke-width="5" stroke-linecap="square"></path>
            <path d="M65.5,49.5 L80.5,49.5" id="Line-Copy-25" stroke="#000000" stroke-width="5" stroke-linecap="square"></path>
            <path d="M65.5,239.5 L100.5,239.5" id="Line-Copy" stroke="#000000" stroke-width="5" stroke-linecap="square"></path>
            <path d="M65.5,189.5 L100.5,189.5" id="Line-Copy-2" stroke="#000000" stroke-width="5" stroke-linecap="square"></path>
            <path d="M65.5,139.5 L100.5,139.5" id="Line-Copy-3" stroke="#000000" stroke-width="5" stroke-linecap="square"></path>
            <path d="M65.5,89.5 L100.5,89.5" id="Line-Copy-4" stroke="#000000" stroke-width="5" stroke-linecap="square"></path>
            <path d="M65.5,39.5 L100.5,39.5" id="Line-Copy-5" stroke="#000000" stroke-width="5" stroke-linecap="square"></path>
            <circle id="Oval-3" fill="#000000" cx="85" cy="373" r="60"></circle>
            <circle id="Oval-4" fill="#FFFFFF" cx="114" cy="376" r="13"></circle>
            <rect id="Rectangle-3" fill="#000000" x="63" y="146" width="44" height="171"></rect>
        </g>
    </g>
</svg>